<svg xmlns="http://www.w3.org/2000/svg" xmlns:xlink="http://www.w3.org/1999/xlink" contentScriptType="text/ecmascript" width="375" zoomAndPan="magnify" contentStyleType="text/css" viewBox="0 0 375 374.999991" height="374.999991" preserveAspectRatio="xMidYMid meet" version="1.0"><path fill="rgb(100%, 100%, 100%)" d="M 187.597656 0 C 83.988281 0 0 83.988281 0 187.597656 C 0 291.203125 83.988281 375.195312 187.597656 375.195312 C 291.203125 375.195312 375.195312 291.203125 375.195312 187.597656 C 375.195312 83.988281 291.203125 0 187.597656 0 Z M 187.597656 0 " fill-opacity="1" fill-rule="nonzero"/><path fill="rgb(12.159729%, 16.079712%, 21.569824%)" d="M 169.832031 297.644531 L 84.519531 297.644531 C 100.875 238.453125 112.957031 159.367188 120.769531 60.390625 C 120.769531 58.800781 122.78125 56.421875 126.8125 53.246094 C 130.839844 50.074219 134.253906 48.484375 137.058594 48.484375 L 222.007812 48.484375 C 204.679688 122.328125 192.597656 201.289062 185.757812 285.375 C 185.757812 286.96875 183.804688 289.410156 179.898438 292.703125 C 175.996094 296 172.640625 297.644531 169.832031 297.644531 Z M 267.777344 205.925781 C 269.601562 202.390625 273.078125 199.21875 278.207031 196.417969 C 283.332031 193.609375 288.035156 192.203125 292.304688 192.203125 C 286.320312 244.433594 281.988281 275.128906 279.308594 284.285156 C 278.210938 286.847656 276.015625 289.714844 272.71875 292.886719 C 269.425781 296.0625 266.738281 297.644531 264.664062 297.644531 L 194.175781 297.644531 C 208.699219 286.785156 222.371094 273.210938 235.1875 256.921875 C 248 240.625 258.863281 223.625 267.777344 205.925781 Z M 267.777344 205.925781 " fill-opacity="1" fill-rule="nonzero"/></svg>